# xmcd
#
# Track frame offsets:
#	150
#	13110
#	28175
#	41107
#	52902
#	68577
#	84370
#	101422
#	116810
#	129335
#
# Disc length: 1958 seconds
#
# Revision: 12
# Processed by: cddbd v1.5.2PL0 Copyright (c) Steve Scherf et al.
# Submitted via: EasyCDDAExtractor 15.3.0.1
#
DISCID=7b07a40a
DTITLE=Selena - Amor Prohibido
DYEAR=1994
DGENRE=Latin
TTITLE0=Amor Prohibido
TTITLE1=No Me Queda Mas
TTITLE2=Cobarde
TTITLE3=Fotos Y Recuerdos (Back In The Chain Gang)
TTITLE4=El Chico Del Apartamento 512
TTITLE5=Bidi Bidi Bom Bom
TTITLE6=Techno Cumbia
TTITLE7=Tus Desprecios
TTITLE8=Si Una Vez
TTITLE9=Ya No
EXTD=
EXTT0=
EXTT1=
EXTT2=
EXTT3=
EXTT4=
EXTT5=
EXTT6=
EXTT7=
EXTT8=
EXTT9=
PLAYORDER=
